<svg width="40" height="40" viewBox="0 0 40 40" fill="none" xmlns="http://www.w3.org/2000/svg">
  <defs>
    <linearGradient id="logoGradient" x1="0%" y1="0%" x2="100%" y2="100%">
      <stop offset="0%" style="stop-color:#a855f7;stop-opacity:1" />
      <stop offset="100%" style="stop-color:#ec4899;stop-opacity:1" />
    </linearGradient>
  </defs>

  <!-- R letter with modern styling -->
  <path d="M10 8 C10 6 11 5 13 5 L22 5 C26 5 28 7 28 11 C28 13.5 27 15 24.5 15.5 L29 24 L24 24 L20 16 L15 16 L15 24 L10 24 Z M15 9 L15 13 L21 13 C22.5 13 23 12.5 23 11 C23 9.5 22.5 9 21 9 Z"
        fill="url(#logoGradient)" />

  <!-- Exit arrow accent -->
  <path d="M32 8 L36 12 L32 16"
        stroke="url(#logoGradient)"
        stroke-width="2"
        stroke-linecap="round"
        stroke-linejoin="round"
        fill="none" />
  <line x1="28" y1="12" x2="36" y2="12"
        stroke="url(#logoGradient)"
        stroke-width="2"
        stroke-linecap="round" />
</svg>
