<svg width="32" height="32" viewBox="0 0 32 32" xmlns="http://www.w3.org/2000/svg">
  <rect width="32" height="32" rx="6" fill="#a855f7"/>
  <path d="M8 6 C8 5.5 8.2 5 8.8 5 L14.5 5 C17 5 18.5 6.5 18.5 8.5 C18.5 10 17.8 11 16.5 11.2 L19 15 L16 15 L14 11.5 L11 11.5 L11 15 L8 15 Z M11 7.5 L11 9.5 L14 9.5 C14.8 9.5 15.5 9.2 15.5 8.5 C15.5 7.8 14.8 7.5 14 7.5 Z"
        fill="white" />
  <path d="M21 7 L24 10 L21 13"
        stroke="white"
        stroke-width="1.5"
        stroke-linecap="round"
        stroke-linejoin="round"
        fill="none" />
  <line x1="19" y1="10" x2="24" y2="10"
        stroke="white"
        stroke-width="1.5"
        stroke-linecap="round" />
</svg>
